<mxfile host="www.draw.io" modified="2019-12-11T00:57:02.178Z" agent="Mozilla/5.0 (Windows NT 10.0; Win64; x64) AppleWebKit/537.36 (KHTML, like Gecko) Chrome/78.0.3904.108 Safari/537.36" etag="xbK_dfW3cFh0bCsrSLW7" version="12.3.9" type="github" pages="3">
  <diagram id="FtYeqZTb3L_EZOEt96D3" name="Sistema Drop Shipping">
    <mxGraphModel dx="868" dy="1602" grid="1" gridSize="10" guides="1" tooltips="1" connect="1" arrows="1" fold="1" page="1" pageScale="1" pageWidth="827" pageHeight="1169" math="0" shadow="0">
      <root>
        <mxCell id="0"/>
        <mxCell id="1" parent="0"/>
        <mxCell id="HbvVa0OVLLMqcZwWTqRp-1" value="" style="rounded=1;whiteSpace=wrap;html=1;" parent="1" vertex="1">
          <mxGeometry x="280" y="-40" width="240" height="640" as="geometry"/>
        </mxCell>
        <mxCell id="HbvVa0OVLLMqcZwWTqRp-2" value="" style="group" parent="1" vertex="1" connectable="0">
          <mxGeometry y="-30" width="220" height="630" as="geometry"/>
        </mxCell>
        <mxCell id="HbvVa0OVLLMqcZwWTqRp-3" value="" style="whiteSpace=wrap;html=1;fontSize=12;fillColor=none;imageAspect=0;" parent="HbvVa0OVLLMqcZwWTqRp-2" vertex="1">
          <mxGeometry width="220" height="630" as="geometry"/>
        </mxCell>
        <mxCell id="HbvVa0OVLLMqcZwWTqRp-4" value="&lt;font size=&quot;1&quot;&gt;&lt;b style=&quot;font-size: 22px&quot;&gt;Fornecedores&lt;/b&gt;&lt;/font&gt;" style="text;html=1;strokeColor=none;fillColor=none;align=center;verticalAlign=middle;whiteSpace=wrap;rounded=0;fontSize=12;" parent="HbvVa0OVLLMqcZwWTqRp-2" vertex="1">
          <mxGeometry x="90" y="20" width="40" height="20" as="geometry"/>
        </mxCell>
        <mxCell id="HbvVa0OVLLMqcZwWTqRp-5" value="americanas" style="shape=note;whiteSpace=wrap;html=1;backgroundOutline=1;darkOpacity=0.05;" parent="1" vertex="1">
          <mxGeometry x="60" y="60" width="110" height="140" as="geometry"/>
        </mxCell>
        <mxCell id="HbvVa0OVLLMqcZwWTqRp-6" value="magazineluiza" style="shape=note;whiteSpace=wrap;html=1;backgroundOutline=1;darkOpacity=0.05;" parent="1" vertex="1">
          <mxGeometry x="60" y="240" width="110" height="140" as="geometry"/>
        </mxCell>
        <mxCell id="HbvVa0OVLLMqcZwWTqRp-7" value="&lt;span style=&quot;font-size: 12px;&quot;&gt;API Acompanhamento&lt;br style=&quot;font-size: 12px;&quot;&gt;&lt;/span&gt;" style="rounded=1;whiteSpace=wrap;html=1;fontSize=12;fontStyle=0" parent="1" vertex="1">
          <mxGeometry x="320" y="433" width="140" height="60" as="geometry"/>
        </mxCell>
        <mxCell id="HbvVa0OVLLMqcZwWTqRp-8" value="&lt;b style=&quot;font-size: 14px&quot;&gt;API Catálogo&lt;br&gt;&lt;/b&gt;" style="rounded=1;whiteSpace=wrap;html=1;fontSize=14;" parent="1" vertex="1">
          <mxGeometry x="320" y="70" width="140" height="60" as="geometry"/>
        </mxCell>
        <mxCell id="HbvVa0OVLLMqcZwWTqRp-9" value="&lt;span style=&quot;font-size: 12px&quot;&gt;API Compras&lt;br style=&quot;font-size: 12px&quot;&gt;&lt;/span&gt;" style="rounded=1;whiteSpace=wrap;html=1;fontSize=12;fontStyle=0" parent="1" vertex="1">
          <mxGeometry x="320" y="190" width="140" height="60" as="geometry"/>
        </mxCell>
        <mxCell id="HbvVa0OVLLMqcZwWTqRp-10" value="&lt;span style=&quot;font-size: 12px&quot;&gt;API Pagamento&lt;br style=&quot;font-size: 12px&quot;&gt;&lt;/span&gt;" style="rounded=1;whiteSpace=wrap;html=1;fontSize=12;fontStyle=0" parent="1" vertex="1">
          <mxGeometry x="320" y="310" width="140" height="60" as="geometry"/>
        </mxCell>
        <mxCell id="HbvVa0OVLLMqcZwWTqRp-11" value="outros" style="shape=note;whiteSpace=wrap;html=1;backgroundOutline=1;darkOpacity=0.05;" parent="1" vertex="1">
          <mxGeometry x="60" y="420" width="110" height="140" as="geometry"/>
        </mxCell>
        <mxCell id="HbvVa0OVLLMqcZwWTqRp-12" value="" style="endArrow=classic;html=1;fontSize=12;entryX=1.027;entryY=0.192;entryDx=0;entryDy=0;entryPerimeter=0;" parent="1" edge="1">
          <mxGeometry width="50" height="50" relative="1" as="geometry">
            <mxPoint x="320" y="100" as="sourcePoint"/>
            <mxPoint x="225.94000000000005" y="100.96000000000004" as="targetPoint"/>
          </mxGeometry>
        </mxCell>
        <mxCell id="HbvVa0OVLLMqcZwWTqRp-13" value="" style="endArrow=classic;html=1;fontSize=12;entryX=1.027;entryY=0.192;entryDx=0;entryDy=0;entryPerimeter=0;" parent="1" edge="1">
          <mxGeometry width="50" height="50" relative="1" as="geometry">
            <mxPoint x="320" y="221" as="sourcePoint"/>
            <mxPoint x="225.94000000000005" y="221.96000000000004" as="targetPoint"/>
          </mxGeometry>
        </mxCell>
        <mxCell id="HbvVa0OVLLMqcZwWTqRp-14" value="" style="endArrow=classic;html=1;fontSize=12;entryX=1.027;entryY=0.192;entryDx=0;entryDy=0;entryPerimeter=0;" parent="1" edge="1">
          <mxGeometry width="50" height="50" relative="1" as="geometry">
            <mxPoint x="320" y="341" as="sourcePoint"/>
            <mxPoint x="225.94000000000005" y="341.96000000000004" as="targetPoint"/>
          </mxGeometry>
        </mxCell>
        <mxCell id="HbvVa0OVLLMqcZwWTqRp-15" value="" style="endArrow=classic;html=1;fontSize=12;entryX=1.027;entryY=0.192;entryDx=0;entryDy=0;entryPerimeter=0;" parent="1" edge="1">
          <mxGeometry width="50" height="50" relative="1" as="geometry">
            <mxPoint x="320" y="461" as="sourcePoint"/>
            <mxPoint x="225.94000000000005" y="461.96000000000004" as="targetPoint"/>
          </mxGeometry>
        </mxCell>
        <mxCell id="HbvVa0OVLLMqcZwWTqRp-16" value="Sistema Drop Shipping&lt;br style=&quot;font-size: 20px;&quot;&gt;" style="text;html=1;strokeColor=none;fillColor=none;align=center;verticalAlign=middle;whiteSpace=wrap;rounded=0;fontSize=20;fontColor=none;fontStyle=1" parent="1" vertex="1">
          <mxGeometry x="241" y="-14" width="320" height="20" as="geometry"/>
        </mxCell>
      </root>
    </mxGraphModel>
  </diagram>
  <diagram name="API Catálogo" id="SVDlMhp4ExnOCpR_ZIV9">
    <mxGraphModel dx="1718" dy="433" grid="1" gridSize="10" guides="1" tooltips="1" connect="1" arrows="1" fold="1" page="1" pageScale="1" pageWidth="850" pageHeight="1100" math="0" shadow="0">
      <root>
        <mxCell id="GI1mcccrDrv7K8XUTZxz-0"/>
        <mxCell id="GI1mcccrDrv7K8XUTZxz-1" parent="GI1mcccrDrv7K8XUTZxz-0"/>
        <mxCell id="hZ3u4EkQgEbuROOwLjof-1" value="API Catálogo" style="rounded=1;whiteSpace=wrap;html=1;fillColor=none;fontSize=26;fontColor=none;verticalAlign=top;fontStyle=1" parent="GI1mcccrDrv7K8XUTZxz-1" vertex="1">
          <mxGeometry x="30" y="40" width="660" height="360" as="geometry"/>
        </mxCell>
        <mxCell id="GI1mcccrDrv7K8XUTZxz-2" value="&lt;font style=&quot;font-size: 22px&quot;&gt;BD&lt;br&gt;&lt;/font&gt;" style="shape=cylinder;whiteSpace=wrap;html=1;boundedLbl=1;backgroundOutline=1;fillColor=none;fontSize=26;fontColor=none;" parent="GI1mcccrDrv7K8XUTZxz-1" vertex="1">
          <mxGeometry x="305" y="140" width="110" height="110" as="geometry"/>
        </mxCell>
        <mxCell id="yfnRz0EyiiSh9v7xONO5-0" value="" style="group;aspect=fixed;" parent="GI1mcccrDrv7K8XUTZxz-1" vertex="1" connectable="0">
          <mxGeometry x="-300" y="40" width="562" height="684" as="geometry"/>
        </mxCell>
        <mxCell id="GccPPIiuo0SalFyfjvxN-14" value="" style="group" parent="yfnRz0EyiiSh9v7xONO5-0" vertex="1" connectable="0">
          <mxGeometry x="-40" y="20" width="110" height="550" as="geometry"/>
        </mxCell>
        <mxCell id="yfnRz0EyiiSh9v7xONO5-2" value="&lt;font size=&quot;1&quot;&gt;&lt;b style=&quot;font-size: 22px&quot;&gt;Fornecedores&lt;/b&gt;&lt;/font&gt;" style="text;html=1;strokeColor=none;fillColor=none;align=center;verticalAlign=middle;whiteSpace=wrap;rounded=0;fontSize=12;" parent="GccPPIiuo0SalFyfjvxN-14" vertex="1">
          <mxGeometry x="35" width="40" height="20" as="geometry"/>
        </mxCell>
        <mxCell id="edbVvOToqaF1KnQ3Fcrs-0" value="americanas" style="shape=note;whiteSpace=wrap;html=1;backgroundOutline=1;darkOpacity=0.05;" parent="GccPPIiuo0SalFyfjvxN-14" vertex="1">
          <mxGeometry y="50" width="110" height="140" as="geometry"/>
        </mxCell>
        <mxCell id="edbVvOToqaF1KnQ3Fcrs-1" value="magazineluiza" style="shape=note;whiteSpace=wrap;html=1;backgroundOutline=1;darkOpacity=0.05;" parent="GccPPIiuo0SalFyfjvxN-14" vertex="1">
          <mxGeometry y="230" width="110" height="140" as="geometry"/>
        </mxCell>
        <mxCell id="edbVvOToqaF1KnQ3Fcrs-2" value="outros" style="shape=note;whiteSpace=wrap;html=1;backgroundOutline=1;darkOpacity=0.05;" parent="GccPPIiuo0SalFyfjvxN-14" vertex="1">
          <mxGeometry y="410" width="110" height="140" as="geometry"/>
        </mxCell>
        <mxCell id="GccPPIiuo0SalFyfjvxN-23" value="" style="group" parent="yfnRz0EyiiSh9v7xONO5-0" vertex="1" connectable="0">
          <mxGeometry x="110" y="290" width="165" height="70" as="geometry"/>
        </mxCell>
        <mxCell id="GccPPIiuo0SalFyfjvxN-16" value="" style="group" parent="GccPPIiuo0SalFyfjvxN-23" vertex="1" connectable="0">
          <mxGeometry width="165" height="70" as="geometry"/>
        </mxCell>
        <mxCell id="GccPPIiuo0SalFyfjvxN-15" value="" style="group" parent="GccPPIiuo0SalFyfjvxN-16" vertex="1" connectable="0">
          <mxGeometry width="165" height="70" as="geometry"/>
        </mxCell>
        <mxCell id="GccPPIiuo0SalFyfjvxN-13" value="" style="group" parent="GccPPIiuo0SalFyfjvxN-15" vertex="1" connectable="0">
          <mxGeometry width="165" height="70" as="geometry"/>
        </mxCell>
        <mxCell id="GccPPIiuo0SalFyfjvxN-6" value="Crawler Magazine Luiza" style="text;html=1;strokeColor=none;fillColor=none;align=center;verticalAlign=middle;whiteSpace=wrap;rounded=0;fontSize=14;fontColor=none;" parent="GccPPIiuo0SalFyfjvxN-13" vertex="1">
          <mxGeometry y="50" width="165" height="20" as="geometry"/>
        </mxCell>
        <mxCell id="GccPPIiuo0SalFyfjvxN-12" value="" style="shape=mxgraph.bpmn.shape;html=1;verticalLabelPosition=bottom;labelBackgroundColor=#ffffff;verticalAlign=top;align=center;perimeter=ellipsePerimeter;outlineConnect=0;outline=catching;symbol=timer;fillColor=none;fontSize=14;fontColor=none;" parent="GccPPIiuo0SalFyfjvxN-13" vertex="1">
          <mxGeometry x="57.5" width="50" height="50" as="geometry"/>
        </mxCell>
        <mxCell id="GccPPIiuo0SalFyfjvxN-24" value="" style="group" parent="yfnRz0EyiiSh9v7xONO5-0" vertex="1" connectable="0">
          <mxGeometry x="110" y="100" width="165" height="70" as="geometry"/>
        </mxCell>
        <mxCell id="GccPPIiuo0SalFyfjvxN-25" value="" style="group" parent="GccPPIiuo0SalFyfjvxN-24" vertex="1" connectable="0">
          <mxGeometry width="165" height="70" as="geometry"/>
        </mxCell>
        <mxCell id="GccPPIiuo0SalFyfjvxN-26" value="" style="group" parent="GccPPIiuo0SalFyfjvxN-25" vertex="1" connectable="0">
          <mxGeometry width="165" height="70" as="geometry"/>
        </mxCell>
        <mxCell id="GccPPIiuo0SalFyfjvxN-27" value="Crawler Americanas" style="text;html=1;strokeColor=none;fillColor=none;align=center;verticalAlign=middle;whiteSpace=wrap;rounded=0;fontSize=14;fontColor=none;" parent="GccPPIiuo0SalFyfjvxN-26" vertex="1">
          <mxGeometry y="50" width="165" height="20" as="geometry"/>
        </mxCell>
        <mxCell id="GccPPIiuo0SalFyfjvxN-28" value="" style="shape=mxgraph.bpmn.shape;html=1;verticalLabelPosition=bottom;labelBackgroundColor=#ffffff;verticalAlign=top;align=center;perimeter=ellipsePerimeter;outlineConnect=0;outline=catching;symbol=timer;fillColor=none;fontSize=14;fontColor=none;" parent="GccPPIiuo0SalFyfjvxN-26" vertex="1">
          <mxGeometry x="57.5" width="50" height="50" as="geometry"/>
        </mxCell>
        <mxCell id="GccPPIiuo0SalFyfjvxN-36" value="" style="endArrow=classic;html=1;fontSize=14;fontColor=none;exitX=0;exitY=0.5;exitDx=0;exitDy=0;" parent="GccPPIiuo0SalFyfjvxN-26" edge="1">
          <mxGeometry width="50" height="50" relative="1" as="geometry">
            <mxPoint x="55.5" y="24.5" as="sourcePoint"/>
            <mxPoint x="-32" y="25.5" as="targetPoint"/>
          </mxGeometry>
        </mxCell>
        <mxCell id="GccPPIiuo0SalFyfjvxN-29" value="" style="endArrow=classic;html=1;fontSize=14;fontColor=none;entryX=-0.004;entryY=0.346;entryDx=0;entryDy=0;entryPerimeter=0;" parent="yfnRz0EyiiSh9v7xONO5-0" target="hZ3u4EkQgEbuROOwLjof-1" edge="1">
          <mxGeometry width="50" height="50" relative="1" as="geometry">
            <mxPoint x="220" y="124.5" as="sourcePoint"/>
            <mxPoint x="270" y="74.5" as="targetPoint"/>
          </mxGeometry>
        </mxCell>
        <mxCell id="GccPPIiuo0SalFyfjvxN-30" value="" style="endArrow=classic;html=1;fontSize=14;fontColor=none;" parent="yfnRz0EyiiSh9v7xONO5-0" edge="1">
          <mxGeometry width="50" height="50" relative="1" as="geometry">
            <mxPoint x="220" y="320" as="sourcePoint"/>
            <mxPoint x="329" y="320" as="targetPoint"/>
          </mxGeometry>
        </mxCell>
        <mxCell id="GccPPIiuo0SalFyfjvxN-31" value="" style="endArrow=classic;html=1;fontSize=14;fontColor=none;entryX=0.032;entryY=0.985;entryDx=0;entryDy=0;entryPerimeter=0;" parent="yfnRz0EyiiSh9v7xONO5-0" target="hZ3u4EkQgEbuROOwLjof-1" edge="1">
          <mxGeometry width="50" height="50" relative="1" as="geometry">
            <mxPoint x="220" y="490" as="sourcePoint"/>
            <mxPoint x="400" y="260" as="targetPoint"/>
          </mxGeometry>
        </mxCell>
        <mxCell id="GccPPIiuo0SalFyfjvxN-32" value="" style="endArrow=classic;html=1;fontSize=14;fontColor=none;" parent="yfnRz0EyiiSh9v7xONO5-0" source="GccPPIiuo0SalFyfjvxN-21" edge="1">
          <mxGeometry width="50" height="50" relative="1" as="geometry">
            <mxPoint x="157.5" y="490" as="sourcePoint"/>
            <mxPoint x="80" y="490" as="targetPoint"/>
          </mxGeometry>
        </mxCell>
        <mxCell id="GccPPIiuo0SalFyfjvxN-0" value="&lt;span style=&quot;font-size: 12px&quot;&gt;API Fornecedores&lt;br style=&quot;font-size: 12px&quot;&gt;&lt;/span&gt;" style="rounded=1;whiteSpace=wrap;html=1;fontSize=12;fontStyle=0" parent="GI1mcccrDrv7K8XUTZxz-1" vertex="1">
          <mxGeometry x="100" y="260" width="140" height="60" as="geometry"/>
        </mxCell>
        <mxCell id="GccPPIiuo0SalFyfjvxN-22" value="" style="group" parent="GI1mcccrDrv7K8XUTZxz-1" vertex="1" connectable="0">
          <mxGeometry x="-190" y="502" width="165" height="70" as="geometry"/>
        </mxCell>
        <mxCell id="GccPPIiuo0SalFyfjvxN-17" value="" style="group" parent="GccPPIiuo0SalFyfjvxN-22" vertex="1" connectable="0">
          <mxGeometry width="165" height="70" as="geometry"/>
        </mxCell>
        <mxCell id="GccPPIiuo0SalFyfjvxN-18" value="" style="group" parent="GccPPIiuo0SalFyfjvxN-17" vertex="1" connectable="0">
          <mxGeometry width="165" height="70" as="geometry"/>
        </mxCell>
        <mxCell id="GccPPIiuo0SalFyfjvxN-19" value="" style="group" parent="GccPPIiuo0SalFyfjvxN-18" vertex="1" connectable="0">
          <mxGeometry width="165" height="70" as="geometry"/>
        </mxCell>
        <mxCell id="GccPPIiuo0SalFyfjvxN-20" value="Crawler" style="text;html=1;strokeColor=none;fillColor=none;align=center;verticalAlign=middle;whiteSpace=wrap;rounded=0;fontSize=14;fontColor=none;" parent="GccPPIiuo0SalFyfjvxN-19" vertex="1">
          <mxGeometry y="50" width="165" height="20" as="geometry"/>
        </mxCell>
        <mxCell id="GccPPIiuo0SalFyfjvxN-21" value="" style="shape=mxgraph.bpmn.shape;html=1;verticalLabelPosition=bottom;labelBackgroundColor=#ffffff;verticalAlign=top;align=center;perimeter=ellipsePerimeter;outlineConnect=0;outline=catching;symbol=timer;fillColor=none;fontSize=14;fontColor=none;" parent="GccPPIiuo0SalFyfjvxN-19" vertex="1">
          <mxGeometry x="57.5" width="50" height="50" as="geometry"/>
        </mxCell>
        <mxCell id="GccPPIiuo0SalFyfjvxN-34" value="" style="endArrow=none;html=1;fontSize=14;fontColor=none;entryX=0;entryY=0.5;entryDx=0;entryDy=0;" parent="GI1mcccrDrv7K8XUTZxz-1" target="GI1mcccrDrv7K8XUTZxz-2" edge="1">
          <mxGeometry width="50" height="50" relative="1" as="geometry">
            <mxPoint x="237" y="263" as="sourcePoint"/>
            <mxPoint x="287" y="213" as="targetPoint"/>
          </mxGeometry>
        </mxCell>
        <mxCell id="GccPPIiuo0SalFyfjvxN-35" value="" style="endArrow=classic;html=1;fontSize=14;fontColor=none;exitX=0;exitY=0.5;exitDx=0;exitDy=0;" parent="GI1mcccrDrv7K8XUTZxz-1" source="GccPPIiuo0SalFyfjvxN-12" edge="1">
          <mxGeometry width="50" height="50" relative="1" as="geometry">
            <mxPoint x="-142.5" y="356" as="sourcePoint"/>
            <mxPoint x="-220" y="356" as="targetPoint"/>
          </mxGeometry>
        </mxCell>
        <mxCell id="GccPPIiuo0SalFyfjvxN-37" value="&lt;span style=&quot;font-size: 12px&quot;&gt;API Produtos&lt;br style=&quot;font-size: 12px&quot;&gt;&lt;/span&gt;" style="rounded=1;whiteSpace=wrap;html=1;fontSize=12;fontStyle=0" parent="GI1mcccrDrv7K8XUTZxz-1" vertex="1">
          <mxGeometry x="492" y="259" width="140" height="60" as="geometry"/>
        </mxCell>
        <mxCell id="GccPPIiuo0SalFyfjvxN-38" value="" style="endArrow=none;html=1;fontSize=14;fontColor=none;entryX=1;entryY=0.5;entryDx=0;entryDy=0;" parent="GI1mcccrDrv7K8XUTZxz-1" target="GI1mcccrDrv7K8XUTZxz-2" edge="1">
          <mxGeometry width="50" height="50" relative="1" as="geometry">
            <mxPoint x="494" y="266" as="sourcePoint"/>
            <mxPoint x="530" y="226.5" as="targetPoint"/>
          </mxGeometry>
        </mxCell>
        <mxCell id="PZCsmpHcrm4BqOgcndD8-1" value="" style="endArrow=classic;html=1;fontSize=14;fontColor=none;entryX=0.485;entryY=0.998;entryDx=0;entryDy=0;entryPerimeter=0;" parent="GI1mcccrDrv7K8XUTZxz-1" target="hZ3u4EkQgEbuROOwLjof-1" edge="1">
          <mxGeometry width="50" height="50" relative="1" as="geometry">
            <mxPoint x="350" y="477" as="sourcePoint"/>
            <mxPoint x="400" y="427" as="targetPoint"/>
          </mxGeometry>
        </mxCell>
        <mxCell id="Bdm6o4Fe27jtfcwaigfE-0" value="&lt;span style=&quot;font-size: 18px;&quot;&gt;FRONT-END&lt;br style=&quot;font-size: 18px;&quot;&gt;&lt;/span&gt;" style="rounded=1;whiteSpace=wrap;html=1;fontSize=18;fontStyle=0;verticalAlign=top;" parent="GI1mcccrDrv7K8XUTZxz-1" vertex="1">
          <mxGeometry x="178" y="477" width="360" height="163" as="geometry"/>
        </mxCell>
        <mxCell id="Bdm6o4Fe27jtfcwaigfE-1" value="" style="fontColor=#0066CC;verticalAlign=top;verticalLabelPosition=bottom;labelPosition=center;align=center;html=1;outlineConnect=0;fillColor=#CCCCCC;strokeColor=#6881B3;gradientColor=none;gradientDirection=north;strokeWidth=2;shape=mxgraph.networks.monitor;" parent="GI1mcccrDrv7K8XUTZxz-1" vertex="1">
          <mxGeometry x="299" y="537" width="80" height="65" as="geometry"/>
        </mxCell>
        <mxCell id="Bdm6o4Fe27jtfcwaigfE-2" value="" style="fontColor=#0066CC;verticalAlign=top;verticalLabelPosition=bottom;labelPosition=center;align=center;html=1;outlineConnect=0;fillColor=#CCCCCC;strokeColor=#6881B3;gradientColor=none;gradientDirection=north;strokeWidth=2;shape=mxgraph.networks.laptop;" parent="GI1mcccrDrv7K8XUTZxz-1" vertex="1">
          <mxGeometry x="418" y="542" width="100" height="55" as="geometry"/>
        </mxCell>
        <mxCell id="Bdm6o4Fe27jtfcwaigfE-3" value="" style="fontColor=#0066CC;verticalAlign=top;verticalLabelPosition=bottom;labelPosition=center;align=center;html=1;outlineConnect=0;fillColor=#CCCCCC;strokeColor=#6881B3;gradientColor=none;gradientDirection=north;strokeWidth=2;shape=mxgraph.networks.mobile;" parent="GI1mcccrDrv7K8XUTZxz-1" vertex="1">
          <mxGeometry x="205" y="510" width="50" height="100" as="geometry"/>
        </mxCell>
        <mxCell id="Bdm6o4Fe27jtfcwaigfE-4" value="BFF" style="text;html=1;strokeColor=none;fillColor=none;align=center;verticalAlign=middle;whiteSpace=wrap;rounded=0;fontSize=18;fontColor=none;" parent="GI1mcccrDrv7K8XUTZxz-1" vertex="1">
          <mxGeometry x="358" y="440" width="40" height="20" as="geometry"/>
        </mxCell>
        <mxCell id="rfsNG_s2QZ_kjyKmH4NA-0" value="&lt;h1&gt;API Gateway&lt;/h1&gt;&lt;p&gt;- Acesso apenas em HTTPS&lt;/p&gt;&lt;p&gt;- Cache cliente com o cache-control&lt;/p&gt;&lt;p&gt;&lt;span&gt;- Segurança implementada apenas no gateway com apiKey&lt;/span&gt;&lt;/p&gt;&lt;p&gt;- Roteamento invocando os métodos da Fachada&lt;/p&gt;&lt;p&gt;- BFF&lt;/p&gt;&lt;p&gt;&lt;br&gt;&lt;/p&gt;" style="text;html=1;strokeColor=none;fillColor=none;spacing=5;spacingTop=-20;whiteSpace=wrap;overflow=hidden;rounded=0;" vertex="1" parent="GI1mcccrDrv7K8XUTZxz-1">
          <mxGeometry x="480" y="45" width="390" height="175" as="geometry"/>
        </mxCell>
      </root>
    </mxGraphModel>
  </diagram>
  <diagram name="Modelo de Dados" id="RLVsMmZMAzg07BFAZg3M">
    <mxGraphModel dx="868" dy="433" grid="1" gridSize="10" guides="1" tooltips="1" connect="1" arrows="1" fold="1" page="1" pageScale="1" pageWidth="850" pageHeight="1100" math="0" shadow="0">
      <root>
        <mxCell id="L_QW2cBHwEn6nDoB4Nol-0"/>
        <mxCell id="L_QW2cBHwEn6nDoB4Nol-1" parent="L_QW2cBHwEn6nDoB4Nol-0"/>
        <mxCell id="L_QW2cBHwEn6nDoB4Nol-3" value="Fornecedor" style="swimlane;fontStyle=0;childLayout=stackLayout;horizontal=1;startSize=26;fillColor=#e0e0e0;horizontalStack=0;resizeParent=1;resizeParentMax=0;resizeLast=0;collapsible=1;marginBottom=0;swimlaneFillColor=#ffffff;align=center;fontSize=14;" parent="L_QW2cBHwEn6nDoB4Nol-1" vertex="1">
          <mxGeometry x="20" y="20" width="200" height="156" as="geometry"/>
        </mxCell>
        <mxCell id="L_QW2cBHwEn6nDoB4Nol-4" value="id: integer" style="text;strokeColor=none;fillColor=none;spacingLeft=4;spacingRight=4;overflow=hidden;rotatable=0;points=[[0,0.5],[1,0.5]];portConstraint=eastwest;fontSize=12;" parent="L_QW2cBHwEn6nDoB4Nol-3" vertex="1">
          <mxGeometry y="26" width="200" height="26" as="geometry"/>
        </mxCell>
        <mxCell id="L_QW2cBHwEn6nDoB4Nol-5" value="razao_social: string" style="text;strokeColor=none;fillColor=none;spacingLeft=4;spacingRight=4;overflow=hidden;rotatable=0;points=[[0,0.5],[1,0.5]];portConstraint=eastwest;fontSize=12;" parent="L_QW2cBHwEn6nDoB4Nol-3" vertex="1">
          <mxGeometry y="52" width="200" height="26" as="geometry"/>
        </mxCell>
        <mxCell id="L_QW2cBHwEn6nDoB4Nol-6" value="cnpj: string" style="text;strokeColor=none;fillColor=none;spacingLeft=4;spacingRight=4;overflow=hidden;rotatable=0;points=[[0,0.5],[1,0.5]];portConstraint=eastwest;fontSize=12;" parent="L_QW2cBHwEn6nDoB4Nol-3" vertex="1">
          <mxGeometry y="78" width="200" height="26" as="geometry"/>
        </mxCell>
        <mxCell id="L_QW2cBHwEn6nDoB4Nol-7" value="status: enum {&quot;ativo&quot;, &quot;inativo&quot;}" style="text;strokeColor=none;fillColor=none;spacingLeft=4;spacingRight=4;overflow=hidden;rotatable=0;points=[[0,0.5],[1,0.5]];portConstraint=eastwest;fontSize=12;" parent="L_QW2cBHwEn6nDoB4Nol-3" vertex="1">
          <mxGeometry y="104" width="200" height="26" as="geometry"/>
        </mxCell>
        <mxCell id="L_QW2cBHwEn6nDoB4Nol-8" value="url: string&#xa;" style="text;strokeColor=none;fillColor=none;spacingLeft=4;spacingRight=4;overflow=hidden;rotatable=0;points=[[0,0.5],[1,0.5]];portConstraint=eastwest;fontSize=12;" parent="L_QW2cBHwEn6nDoB4Nol-3" vertex="1">
          <mxGeometry y="130" width="200" height="26" as="geometry"/>
        </mxCell>
        <mxCell id="L_QW2cBHwEn6nDoB4Nol-9" value="Produto" style="swimlane;fontStyle=0;childLayout=stackLayout;horizontal=1;startSize=26;fillColor=#e0e0e0;horizontalStack=0;resizeParent=1;resizeParentMax=0;resizeLast=0;collapsible=1;marginBottom=0;swimlaneFillColor=#ffffff;align=center;fontSize=14;" parent="L_QW2cBHwEn6nDoB4Nol-1" vertex="1">
          <mxGeometry x="280" y="20" width="200" height="260" as="geometry"/>
        </mxCell>
        <mxCell id="L_QW2cBHwEn6nDoB4Nol-10" value="id: integer" style="text;strokeColor=none;fillColor=none;spacingLeft=4;spacingRight=4;overflow=hidden;rotatable=0;points=[[0,0.5],[1,0.5]];portConstraint=eastwest;fontSize=12;" parent="L_QW2cBHwEn6nDoB4Nol-9" vertex="1">
          <mxGeometry y="26" width="200" height="26" as="geometry"/>
        </mxCell>
        <mxCell id="L_QW2cBHwEn6nDoB4Nol-11" value="descricao: string" style="text;strokeColor=none;fillColor=none;spacingLeft=4;spacingRight=4;overflow=hidden;rotatable=0;points=[[0,0.5],[1,0.5]];portConstraint=eastwest;fontSize=12;" parent="L_QW2cBHwEn6nDoB4Nol-9" vertex="1">
          <mxGeometry y="52" width="200" height="26" as="geometry"/>
        </mxCell>
        <mxCell id="L_QW2cBHwEn6nDoB4Nol-12" value="categorias: array { nome: string }" style="text;strokeColor=none;fillColor=none;spacingLeft=4;spacingRight=4;overflow=hidden;rotatable=0;points=[[0,0.5],[1,0.5]];portConstraint=eastwest;fontSize=12;" parent="L_QW2cBHwEn6nDoB4Nol-9" vertex="1">
          <mxGeometry y="78" width="200" height="26" as="geometry"/>
        </mxCell>
        <mxCell id="L_QW2cBHwEn6nDoB4Nol-13" value="fornecedor_id: integer&#xa;" style="text;strokeColor=none;fillColor=none;spacingLeft=4;spacingRight=4;overflow=hidden;rotatable=0;points=[[0,0.5],[1,0.5]];portConstraint=eastwest;fontSize=12;" parent="L_QW2cBHwEn6nDoB4Nol-9" vertex="1">
          <mxGeometry y="104" width="200" height="26" as="geometry"/>
        </mxCell>
        <mxCell id="L_QW2cBHwEn6nDoB4Nol-14" value="estoque: number&#xa;" style="text;strokeColor=none;fillColor=none;spacingLeft=4;spacingRight=4;overflow=hidden;rotatable=0;points=[[0,0.5],[1,0.5]];portConstraint=eastwest;fontSize=12;" parent="L_QW2cBHwEn6nDoB4Nol-9" vertex="1">
          <mxGeometry y="130" width="200" height="26" as="geometry"/>
        </mxCell>
        <mxCell id="L_QW2cBHwEn6nDoB4Nol-15" value="validade: string&#xa;&#xa;" style="text;strokeColor=none;fillColor=none;spacingLeft=4;spacingRight=4;overflow=hidden;rotatable=0;points=[[0,0.5],[1,0.5]];portConstraint=eastwest;fontSize=12;" parent="L_QW2cBHwEn6nDoB4Nol-9" vertex="1">
          <mxGeometry y="156" width="200" height="26" as="geometry"/>
        </mxCell>
        <mxCell id="L_QW2cBHwEn6nDoB4Nol-16" value="referencia: string&#xa;&#xa;" style="text;strokeColor=none;fillColor=none;spacingLeft=4;spacingRight=4;overflow=hidden;rotatable=0;points=[[0,0.5],[1,0.5]];portConstraint=eastwest;fontSize=12;" parent="L_QW2cBHwEn6nDoB4Nol-9" vertex="1">
          <mxGeometry y="182" width="200" height="26" as="geometry"/>
        </mxCell>
        <mxCell id="L_QW2cBHwEn6nDoB4Nol-17" value="tamanho: string&#xa;&#xa;" style="text;strokeColor=none;fillColor=none;spacingLeft=4;spacingRight=4;overflow=hidden;rotatable=0;points=[[0,0.5],[1,0.5]];portConstraint=eastwest;fontSize=12;" parent="L_QW2cBHwEn6nDoB4Nol-9" vertex="1">
          <mxGeometry y="208" width="200" height="26" as="geometry"/>
        </mxCell>
        <mxCell id="L_QW2cBHwEn6nDoB4Nol-18" value="imagens: array {url: string}&#xa;" style="text;strokeColor=none;fillColor=none;spacingLeft=4;spacingRight=4;overflow=hidden;rotatable=0;points=[[0,0.5],[1,0.5]];portConstraint=eastwest;fontSize=12;" parent="L_QW2cBHwEn6nDoB4Nol-9" vertex="1">
          <mxGeometry y="234" width="200" height="26" as="geometry"/>
        </mxCell>
      </root>
    </mxGraphModel>
  </diagram>
</mxfile>
